<?xml version="1.0" encoding="UTF-8" standalone="no"?>
<svg width="100px" height="56px" viewBox="0 0 100 56" version="1.1" xmlns="http://www.w3.org/2000/svg" xmlns:sketch="http://www.bohemiancoding.com/sketch/ns">
    <!-- Generator: Sketch 3.0.4 (8053) - http://www.bohemiancoding.com/sketch -->
    <title>mountain</title>
    <desc>Created with Sketch.</desc>
    <defs></defs>
    <g id="Page-1" stroke="none" stroke-width="1" fill="none" fill-rule="evenodd" sketch:type="MSPage">
        <g id="mountain" sketch:type="MSLayerGroup" transform="translate(0.000000, 3.000000)" fill="#010002">
            <g id="Page-1" sketch:type="MSShapeGroup">
                <g id="mountain13">
                    <path d="M100,52.3125 L0,52.3125 L4.96,43.59825 L20.4066667,16.50375 C23.14,11.718 27.6,11.718 30.3266667,16.50375 C30.3266667,16.50375 33.9133333,22.79475 34.3466667,23.5305 C36.4,19.93275 47.3466667,0.72225 47.3466667,0.72225 C50.0866667,-4.0635 54.5466667,-4.0635 57.2733333,0.72225 L79.0266667,38.87325 C80.1466667,36.90225 81.2533333,34.965 82.1,33.453 C84.08,29.997 87.2866667,29.997 89.2733333,33.453 C91.24,36.9225 94.46,42.57225 96.44,46.01475 L100,52.3125 L100,52.3125 Z"
                          id="Shape"></path>
                </g>
            </g>
        </g>
    </g>
</svg>
